<?xml version="1.0" encoding="UTF-8" standalone="no" ?>
<!DOCTYPE svg PUBLIC "-//W3C//DTD SVG 1.1//EN" "http://www.w3.org/Graphics/SVG/1.1/DTD/svg11.dtd">
<svg xmlns="http://www.w3.org/2000/svg" xmlns:xlink="http://www.w3.org/1999/xlink" version="1.1" width="150" height="50" viewBox="0 0 150 50" xml:space="preserve">
<desc>Created with Fabric.js 5.2.4</desc>
<defs>
</defs>
<rect x="0" y="0" width="100%" height="100%" fill="transparent"></rect>
<g transform="matrix(1 0 0 1 75 25)" id="042c5ac9-e77d-443e-a8ae-571b580ec436"  >
<rect style="stroke: none; stroke-width: 1; stroke-dasharray: none; stroke-linecap: butt; stroke-dashoffset: 0; stroke-linejoin: miter; stroke-miterlimit: 4; fill: rgb(255,255,255); fill-rule: nonzero; opacity: 1; visibility: hidden;" vector-effect="non-scaling-stroke"  x="-75" y="-25" rx="0" ry="0" width="150" height="50" />
</g>
<g transform="matrix(Infinity NaN NaN Infinity 0 0)" id="c66fd0dd-1413-4fa5-8d63-4a44bb6d1112"  >
</g>
<g transform="matrix(0.73 0 0 0.85 75 25)"  >
<g style="" vector-effect="non-scaling-stroke"   >
		<g transform="matrix(0.13 0 0 -0.13 -88.76 0)"  >
<path style="stroke: none; stroke-width: 1; stroke-dasharray: none; stroke-linecap: butt; stroke-dashoffset: 0; stroke-linejoin: miter; stroke-miterlimit: 4; fill: rgb(255,255,255); fill-rule: nonzero; opacity: 1;" vector-effect="non-scaling-stroke"  transform=" translate(-835.32, -1104.88)" d="M 765 1204 C 720 1155 721 1058 768 1008 C 822 950 918 981 935 1062 C 946 1110 931 1180 905 1206 C 870 1241 798 1240 765 1204 z M 888 1170 C 904 1140 899 1048 881 1026 C 873 1017 852 1010 834 1010 C 807 1010 798 1016 785 1040 C 759 1090 769 1168 804 1193 C 827 1208 874 1196 888 1170 z" stroke-linecap="round" />
</g>
		<g transform="matrix(0.13 0 0 -0.13 -31.84 0.02)"  >
<path style="stroke: none; stroke-width: 1; stroke-dasharray: none; stroke-linecap: butt; stroke-dashoffset: 0; stroke-linejoin: miter; stroke-miterlimit: 4; fill: rgb(255,255,255); fill-rule: nonzero; opacity: 1;" vector-effect="non-scaling-stroke"  transform=" translate(-1262.2, -1104.77)" d="M 1202 1214 C 1174 1195 1173 1146 1200 1123 C 1211 1113 1239 1098 1262 1089 C 1315 1068 1331 1047 1308 1024 C 1285 1001 1240 1003 1219 1029 C 1201 1051 1170 1058 1170 1040 C 1170 1034 1181 1018 1195 1005 C 1237 962 1339 976 1352 1028 C 1362 1063 1341 1090 1283 1117 C 1241 1137 1224 1151 1222 1168 C 1216 1209 1290 1218 1311 1179 C 1324 1154 1350 1155 1350 1179 C 1350 1207 1312 1230 1265 1230 C 1243 1230 1214 1223 1202 1214 z" stroke-linecap="round" />
</g>
		<g transform="matrix(0.13 0 0 -0.13 -5.33 -0.04)"  >
<path style="stroke: none; stroke-width: 1; stroke-dasharray: none; stroke-linecap: butt; stroke-dashoffset: 0; stroke-linejoin: miter; stroke-miterlimit: 4; fill: rgb(255,255,255); fill-rule: nonzero; opacity: 1;" vector-effect="non-scaling-stroke"  transform=" translate(-1460.99, -1105.19)" d="M 1448 1204 C 1348 1150 1391 990 1505 990 C 1536 990 1536 993 1508 1030 C 1494 1050 1487 1074 1487 1105 C 1487 1136 1494 1160 1508 1180 C 1520 1196 1530 1212 1530 1215 C 1530 1226 1474 1219 1448 1204 z" stroke-linecap="round" />
</g>
		<g transform="matrix(0.13 0 0 -0.13 -59.47 4.32)"  >
<path style="stroke: none; stroke-width: 1; stroke-dasharray: none; stroke-linecap: butt; stroke-dashoffset: 0; stroke-linejoin: miter; stroke-miterlimit: 4; fill: rgb(255,255,255); fill-rule: nonzero; opacity: 1;" vector-effect="non-scaling-stroke"  transform=" translate(-1055, -1072.47)" d="M 1045 1160 C 1034 1156 1015 1154 1003 1157 C 980 1162 980 1160 980 1071 C 980 997 983 980 995 980 C 1007 980 1010 994 1010 1044 C 1010 1124 1030 1151 1074 1134 C 1087 1129 1090 1112 1090 1054 C 1090 987 1092 980 1110 980 C 1128 980 1130 987 1130 1053 C 1130 1096 1125 1133 1118 1142 C 1101 1163 1070 1171 1045 1160 z" stroke-linecap="round" />
</g>
		<g transform="matrix(0.13 0 0 -0.13 17.09 4.17)"  >
<path style="stroke: none; stroke-width: 1; stroke-dasharray: none; stroke-linecap: butt; stroke-dashoffset: 0; stroke-linejoin: miter; stroke-miterlimit: 4; fill: rgb(255,255,255); fill-rule: nonzero; opacity: 1;" vector-effect="non-scaling-stroke"  transform=" translate(-1629.15, -1073.58)" d="M 1642 1161 C 1635 1157 1618 1155 1604 1158 L 1580 1162 L 1580 1071 C 1580 987 1582 980 1600 980 C 1617 980 1619 988 1622 1053 C 1625 1124 1625 1125 1653 1128 C 1672 1130 1680 1136 1678 1147 C 1674 1167 1660 1173 1642 1161 z" stroke-linecap="round" />
</g>
		<g transform="matrix(0.13 0 0 -0.13 39.57 4.3)"  >
<path style="stroke: none; stroke-width: 1; stroke-dasharray: none; stroke-linecap: butt; stroke-dashoffset: 0; stroke-linejoin: miter; stroke-miterlimit: 4; fill: rgb(255,255,255); fill-rule: nonzero; opacity: 1;" vector-effect="non-scaling-stroke"  transform=" translate(-1797.8, -1072.66)" d="M 1760 1157 C 1709 1131 1702 1016 1750 990 C 1774 977 1826 977 1851 991 C 1876 1004 1865 1023 1837 1014 C 1803 1003 1777 1007 1763 1026 C 1741 1056 1748 1060 1814 1060 L 1878 1060 L 1870 1096 C 1865 1116 1856 1139 1848 1146 C 1827 1166 1787 1171 1760 1157 z M 1830 1121 C 1845 1091 1844 1090 1795 1090 C 1747 1090 1740 1099 1766 1124 C 1787 1146 1817 1144 1830 1121 z" stroke-linecap="round" />
</g>
		<g transform="matrix(0.13 0 0 -0.13 66.67 4.19)"  >
<path style="stroke: none; stroke-width: 1; stroke-dasharray: none; stroke-linecap: butt; stroke-dashoffset: 0; stroke-linejoin: miter; stroke-miterlimit: 4; fill: rgb(255,255,255); fill-rule: nonzero; opacity: 1;" vector-effect="non-scaling-stroke"  transform=" translate(-2001, -1073.44)" d="M 1965 1159 C 1931 1140 1920 1118 1920 1070 C 1920 1034 1925 1018 1943 1002 C 1968 978 2018 973 2051 990 C 2080 1006 2075 1023 2043 1015 C 2001 1004 1977 1007 1963 1026 C 1941 1056 1948 1060 2016 1060 L 2082 1060 L 2075 1093 C 2063 1150 2008 1183 1965 1159 z M 2034 1118 C 2048 1094 2039 1088 1991 1092 C 1950 1095 1950 1095 1966 1118 C 1984 1144 2017 1144 2034 1118 z" stroke-linecap="round" />
</g>
		<g transform="matrix(0.13 0 0 -0.13 92.53 4.11)"  >
<path style="stroke: none; stroke-width: 1; stroke-dasharray: none; stroke-linecap: butt; stroke-dashoffset: 0; stroke-linejoin: miter; stroke-miterlimit: 4; fill: rgb(255,255,255); fill-rule: nonzero; opacity: 1;" vector-effect="non-scaling-stroke"  transform=" translate(-2195, -1074.07)" d="M 2185 1160 C 2174 1156 2155 1154 2143 1157 C 2120 1162 2120 1160 2120 1071 C 2120 997 2123 980 2135 980 C 2147 980 2150 994 2150 1050 C 2150 1109 2153 1121 2170 1130 C 2182 1136 2200 1138 2210 1135 C 2228 1129 2230 1119 2230 1054 C 2230 987 2232 980 2250 980 C 2268 980 2270 987 2270 1055 C 2270 1117 2266 1134 2250 1150 C 2229 1171 2216 1173 2185 1160 z" stroke-linecap="round" />
</g>
</g>
</g>
</svg>